<svg width="24" height="24" viewBox="0 0 24 24" fill="none" xmlns="http://www.w3.org/2000/svg">
<path d="M3.5 5C3.5 4.72386 3.72386 4.5 4 4.5H20C20.2761 4.5 20.5 4.72386 20.5 5C20.5 5.27614 20.2761 5.5 20 5.5H4C3.72386 5.5 3.5 5.27614 3.5 5ZM3.5 12C3.5 11.7239 3.72386 11.5 4 11.5H14C14.2761 11.5 14.5 11.7239 14.5 12C14.5 12.2761 14.2761 12.5 14 12.5H4C3.72386 12.5 3.5 12.2761 3.5 12ZM3.5 19C3.5 18.7239 3.72386 18.5 4 18.5H20C20.2761 18.5 20.5 18.7239 20.5 19C20.5 19.2761 20.2761 19.5 20 19.5H4C3.72386 19.5 3.5 19.2761 3.5 19Z" fill="white" stroke="white"/>
</svg>
