<svg width="20" height="20" viewBox="0 0 20 20" fill="none" xmlns="http://www.w3.org/2000/svg">
<path d="M5.9199 12.1697C6.93758 12.1697 7.7599 12.9916 7.7599 14.0307V17.4397C7.7599 18.4703 6.93617 19.2997 5.9199 19.2997H2.5399C1.53185 19.2997 0.699901 18.4685 0.699901 17.4397V14.0307C0.699901 12.9934 1.53043 12.1697 2.5399 12.1697H5.9199ZM17.46 12.1697C18.4695 12.1697 19.3 12.9934 19.3 14.0307V17.4397C19.3 18.4685 18.4681 19.2997 17.46 19.2997H14.08C13.0637 19.2997 12.24 18.4703 12.24 17.4397V14.0307C12.24 12.9916 13.0623 12.1697 14.08 12.1697H17.46ZM5.9199 0.7C6.93599 0.7 7.7599 1.52925 7.7599 2.561V5.97C7.7599 7.00878 6.93794 7.83 5.9199 7.83H2.5399C1.53007 7.83 0.699901 7.00698 0.699901 5.97V2.561C0.699901 1.53105 1.53202 0.7 2.5399 0.7H5.9199ZM17.46 0.7C18.4679 0.7 19.3 1.53105 19.3 2.561V5.97C19.3 7.00698 18.4698 7.83 17.46 7.83H14.08C13.062 7.83 12.24 7.00878 12.24 5.97V2.561C12.24 1.52925 13.0639 0.7 14.08 0.7H17.46Z" stroke="#7B8698" stroke-width="1.4"/>
</svg>
