<svg width="56" height="56" viewBox="0 0 56 56" fill="none" xmlns="http://www.w3.org/2000/svg">
<mask id="path-1-inside-1_19_11" fill="white">
<path d="M28 4C41.2 4 52 14.8 52 28C52 41.2 41.2 52 28 52C14.8 52 4 41.2 4 28C4 14.8 14.8 4 28 4ZM28 0C12.6 0 0 12.6 0 28C0 43.4 12.6 56 28 56C43.4 56 56 43.4 56 28C56 12.6 43.4 0 28 0Z"/>
</mask>
<path d="M28 8C38.9909 8 48 17.0091 48 28H56C56 12.5909 43.4091 0 28 0V8ZM48 28C48 38.9909 38.9909 48 28 48V56C43.4091 56 56 43.4091 56 28H48ZM28 48C17.0091 48 8 38.9909 8 28H0C0 43.4091 12.5909 56 28 56V48ZM8 28C8 17.0091 17.0091 8 28 8V0C12.5909 0 0 12.5909 0 28H8ZM28 -4C10.3909 -4 -4 10.3909 -4 28H4C4 14.8091 14.8091 4 28 4V-4ZM-4 28C-4 45.6091 10.3909 60 28 60V52C14.8091 52 4 41.1909 4 28H-4ZM28 60C45.6091 60 60 45.6091 60 28H52C52 41.1909 41.1909 52 28 52V60ZM60 28C60 10.3909 45.6091 -4 28 -4V4C41.1909 4 52 14.8091 52 28H60Z" fill="#E72626" mask="url(#path-1-inside-1_19_11)"/>
<path d="M16.4981 32.6168L15.094 39.3501C15.0455 39.5962 15.0472 39.8512 15.0988 40.0966C15.1505 40.3419 15.2508 40.5713 15.3924 40.7681C15.5341 40.9648 15.7135 41.1239 15.9176 41.2337C16.1217 41.3436 16.3452 41.4014 16.572 41.4029C16.6777 41.4147 16.7841 41.4147 16.8898 41.4029L22.9867 39.8427L34.6927 26.8853L28.1598 19.6429L16.4981 32.6168Z" fill="#E72626"/>
<path d="M38.3728 20.3983L34.0126 15.5536C33.7259 15.2367 33.338 15.0588 32.9336 15.0588C32.5293 15.0588 32.1413 15.2367 31.8547 15.5536L29.4307 18.2469L35.9562 25.4975L38.3802 22.8042C38.522 22.6458 38.6344 22.4578 38.7108 22.2511C38.7872 22.0444 38.8262 21.823 38.8255 21.5995C38.8248 21.3761 38.7845 21.155 38.7068 20.9488C38.6291 20.7427 38.5156 20.5556 38.3728 20.3983V20.3983Z" fill="#E72626"/>
</svg>
