<svg width="22" height="20" viewBox="0 0 22 20" fill="none" xmlns="http://www.w3.org/2000/svg">
<path fill-rule="evenodd" clip-rule="evenodd" d="M10.4278 1.69749C10.6008 1.69749 10.7667 1.76334 10.889 1.88055C11.0113 1.99776 11.08 2.15673 11.08 2.32249C11.08 2.48825 11.0113 2.64723 10.889 2.76444C10.7667 2.88165 10.6008 2.94749 10.4278 2.94749H7.17653C4.93044 2.94749 3.47827 4.42249 3.47827 6.70499V13.6333C3.47827 15.9158 4.93044 17.3908 7.17653 17.3908H14.8496C17.0965 17.3908 18.5487 15.9158 18.5487 13.6325V10.2767C18.5487 10.1109 18.6174 9.95193 18.7397 9.83472C18.862 9.71751 19.0279 9.65166 19.2009 9.65166C19.3738 9.65166 19.5397 9.71751 19.662 9.83472C19.7843 9.95193 19.853 10.1109 19.853 10.2767V13.6333C19.853 16.6283 17.8417 18.6408 14.8496 18.6408H7.17653C4.18522 18.6408 2.17392 16.6283 2.17392 13.6325V6.70583C2.17392 3.70999 4.18435 1.69666 7.17653 1.69666H10.4287L10.4278 1.69749ZM18.0017 2.42916L19.06 3.44333C19.5756 3.93666 19.8591 4.59333 19.8583 5.29083C19.8583 5.98916 19.5748 6.64416 19.06 7.13666L12.5296 13.395C12.2943 13.6214 12.0145 13.8008 11.7065 13.9229C11.3984 14.0451 11.0682 14.1075 10.7348 14.1067H7.47739C7.39034 14.1067 7.30416 14.09 7.22394 14.0576C7.14372 14.0252 7.07108 13.9778 7.0103 13.918C6.94952 13.8583 6.90183 13.7875 6.87004 13.7099C6.83826 13.6322 6.82302 13.5492 6.82522 13.4658L6.90696 10.3167C6.9224 9.69237 7.18838 9.09781 7.64957 8.65666L14.1496 2.42916C14.6612 1.94114 15.3538 1.66718 16.0757 1.66718C16.7975 1.66718 17.4901 1.94114 18.0017 2.42916ZM13.613 4.70916L8.57218 9.54166C8.34791 9.75593 8.21863 10.0449 8.21131 10.3483L8.14609 12.8575H10.7348C11.0652 12.8575 11.3748 12.735 11.6087 12.5108L16.68 7.64916L13.613 4.70999V4.70916ZM15.0704 3.31333L14.5348 3.82499L17.6017 6.76499L18.1383 6.25249C18.4061 5.99583 18.5539 5.65416 18.5539 5.29083C18.5539 4.92666 18.4061 4.58416 18.1383 4.32749L17.08 3.31333C16.8129 3.05914 16.4517 2.91649 16.0752 2.91649C15.6988 2.91649 15.3376 3.05914 15.0704 3.31333Z" fill="#EB5757"/>
</svg>
