<svg width="322" height="281" viewBox="0 0 322 281" fill="none" xmlns="http://www.w3.org/2000/svg">
<circle cx="149" cy="257" r="18" stroke="black" stroke-width="12"/>
<circle cx="235" cy="257" r="18" stroke="black" stroke-width="12"/>
<path d="M284 217.5H136.728C124.502 217.5 113.5 210.082 108.916 198.748L92.6385 158.5M0.5 37H36.0832C40.5658 37 44.6001 39.7201 46.2808 43.8758L55.4307 66.5M55.4307 66.5H313.5L284 158.5H92.6385M55.4307 66.5L92.6385 158.5" stroke="#E31B28" stroke-width="12"/>
<rect width="10.8668" height="30.3221" rx="5" transform="matrix(0.915486 -0.402349 0.719229 0.694773 133 16.9758)" fill="#F99808"/>
<rect x="179" width="12" height="25" rx="5" fill="#F99808"/>
<rect width="10.8668" height="30.3221" rx="5" transform="matrix(0.915486 0.402349 -0.719229 0.694773 224.809 12.6035)" fill="#F99808"/>
</svg>
