<svg width="701" height="700" viewBox="0 0 701 700" fill="none" xmlns="http://www.w3.org/2000/svg">
<path d="M700.001 583.601V418.361V418.351V161.964V161.953C700.001 161.5 699.804 161.089 699.757 160.646C699.71 160.271 699.824 159.922 699.746 159.547C699.679 159.256 699.491 159.032 699.408 158.756C699.137 157.797 698.741 156.938 698.241 156.084C697.996 155.662 697.772 155.266 697.481 154.896C696.83 154.032 696.043 153.308 695.158 152.657C694.856 152.433 694.564 152.214 694.246 152.026C693.793 151.756 693.465 151.349 692.965 151.131L344.565 0.797172C344.169 0.620092 343.747 0.656547 343.341 0.536761C342.596 0.302387 341.846 0.130506 341.055 0.0471724C340.237 -0.0361609 339.456 0.000297407 338.654 0.0836307C338.258 0.130505 337.872 0.0159221 337.45 0.0940474L240.336 21.354C240.055 21.4113 239.836 21.6093 239.565 21.6926C238.758 21.9374 238.039 22.2863 237.299 22.6822C236.669 23.0311 236.086 23.3593 235.549 23.802C234.976 24.2707 234.513 24.8176 234.034 25.3905C233.518 26.0103 233.055 26.604 232.68 27.3176C232.529 27.5884 232.294 27.7603 232.164 28.0519C231.976 28.4582 232.013 28.8905 231.893 29.3019C231.648 30.0624 231.471 30.7967 231.393 31.5989C231.31 32.4166 231.346 33.1718 231.43 33.9791C231.476 34.4114 231.362 34.8177 231.45 35.2396C231.518 35.5677 231.721 35.8333 231.825 36.151C232.003 36.7343 232.232 37.2604 232.503 37.8177C232.878 38.5885 233.32 39.2865 233.846 39.9427C234.185 40.3854 234.544 40.7813 234.956 41.1667C235.669 41.8334 236.45 42.3438 237.289 42.8126C237.591 42.9896 237.815 43.2657 238.143 43.4167L328.304 83.0941V251.987L8.98448 328.274C8.90114 328.284 8.84385 328.357 8.76052 328.378C8.44803 328.462 8.15635 328.623 7.83863 328.727C7.16155 328.972 6.57822 329.311 5.95836 329.67C5.53648 329.915 5.04692 330.045 4.66149 330.337C4.42712 330.514 4.27608 330.758 4.05733 330.956C3.52088 331.425 3.09899 331.962 2.66666 332.519C2.33854 332.951 1.93229 333.3 1.66145 333.753C1.61457 333.821 1.54686 333.857 1.49999 333.941C1.39582 334.128 1.40624 334.326 1.3125 334.514C1.02083 335.097 0.859382 335.727 0.671875 336.368C0.494795 336.93 0.265625 337.441 0.182292 338.024C0.135416 338.363 0.145824 338.675 0.135406 339.003C0.114574 339.243 0 339.42 0 339.628V505.148C0 505.674 0.234373 506.117 0.291667 506.617C0.395833 507.435 0.499993 508.226 0.770833 508.997C1.01562 509.711 1.39062 510.305 1.75001 510.945C2.13542 511.596 2.4948 512.226 3.00001 512.799C3.53646 513.403 4.16668 513.862 4.80734 514.351C5.2136 514.654 5.50526 515.086 5.97401 515.341L334.254 698.368C334.686 698.612 335.139 698.717 335.598 698.904C335.936 699.045 336.264 699.206 336.624 699.31C337.65 699.612 338.712 699.8 339.785 699.81C339.843 699.81 339.889 699.831 339.947 699.831C340.077 699.831 340.191 699.784 340.306 699.784C341.249 699.748 342.207 699.623 343.129 699.362C343.186 699.352 343.233 699.362 343.29 699.342L691.677 594.763C691.922 594.695 692.099 594.529 692.328 594.45C692.818 594.263 693.24 594.029 693.693 593.784C694.5 593.362 695.234 592.888 695.896 592.305C696.281 591.966 696.63 591.638 696.979 591.253C697.599 590.555 698.078 589.794 698.521 588.966C698.745 588.56 698.989 588.195 699.151 587.753C699.672 586.435 700 585.06 700 583.591L700.001 583.601ZM676.668 574.919L351.615 672.497V531.351L676.668 433.757V574.919ZM587.032 171.519L344.792 64.8827C344.584 64.7889 344.396 64.6952 344.188 64.6118L280.292 36.4972L338.765 23.7108L650.259 158.124L587.032 171.519ZM472.22 470.785L351.611 415.067V279.253L655.064 415.893L472.22 470.785ZM328.273 413.431L217.768 441.196L43.5015 344.035L328.275 275.993L328.273 413.431ZM338.784 434.837L438.497 480.9L341.315 510.067L247.512 457.775L338.784 434.837ZM581.171 194.437C581.415 194.542 581.66 194.505 581.905 194.588C582.337 194.75 582.816 194.776 583.259 194.88C584.134 195.078 584.999 195.427 585.874 195.427C586.571 195.427 587.238 195.25 587.926 195.135C588.077 195.114 588.217 195.125 588.368 195.088L588.639 195.031C588.863 194.974 589.092 194.963 589.316 194.89L676.66 176.374V400.041L351.607 253.681V93.3878L581.171 194.437ZM328.264 668.317L23.3172 498.317V359.517L328.264 529.544V668.317Z" fill="#CC2229"/>
</svg>
