<svg width="558" height="326" viewBox="0 0 558 326" fill="none" xmlns="http://www.w3.org/2000/svg">
<path d="M339.5 72.5C339.5 108.35 310.223 137.5 274 137.5C237.777 137.5 208.5 108.35 208.5 72.5C208.5 36.65 237.777 7.5 274 7.5C310.223 7.5 339.5 36.65 339.5 72.5Z" stroke="#5E5E5E" stroke-width="15"/>
<rect y="310.574" width="130" height="15" rx="7" transform="rotate(-10 0 310.574)" fill="#5E5E5E"/>
<rect x="429.605" y="288" width="130" height="15" rx="7" transform="rotate(10 429.605 288)" fill="#5E5E5E"/>
<path d="M143.357 79.5H408.038C410.366 79.5 412.309 81.2757 412.519 83.5942L433.346 313.594C433.585 316.229 431.51 318.5 428.864 318.5H130.68C128.097 318.5 126.044 316.331 126.186 313.752L138.864 83.7523C138.995 81.3669 140.968 79.5 143.357 79.5Z" fill="#1125430" stroke="#5E5E5E" stroke-width="15"/>
<circle cx="226" cy="209" r="10" fill="black"/>
<circle cx="226" cy="209" r="10" fill="black"/>
<circle cx="226" cy="209" r="10" fill="#5E5E5E"/>
<circle cx="322" cy="209" r="10" fill="black"/>
<circle cx="322" cy="209" r="10" fill="black"/>
<circle cx="322" cy="209" r="10" fill="#5E5E5E"/>
<rect x="201" y="72" width="15" height="51" rx="3" fill="#5E5E5E"/>
<rect x="201" y="72" width="15" height="51" rx="3" fill="#5E5E5E"/>
<rect x="332" y="72" width="15" height="51" rx="3" fill="#5E5E5E"/>
<rect x="332" y="72" width="15" height="51" rx="3" fill="#5E5E5E"/>
<path d="M291.235 238.021C292.299 238.301 293.416 238.682 294.581 239.184L272.437 243.089C274.542 241.262 276.894 239.737 279.418 238.728C282.95 237.317 286.874 236.876 291.235 238.021Z" stroke="#5E5E5E" stroke-width="14"/>
<path d="M385.169 212.159C381.818 212.439 380.034 211.319 379.283 210.424C379.263 210.026 379.267 209.187 379.498 207.762C379.977 204.805 381.176 200.941 383.029 196.425C383.365 195.605 383.715 194.784 384.076 193.962C385.959 198.325 387.422 202.497 388.249 206.019C388.877 208.694 388.965 210.283 388.963 211.012C388.957 211.016 388.951 211.019 388.945 211.023C388.251 211.478 386.93 212.012 385.169 212.159ZM389.289 210.759C389.29 210.759 389.286 210.764 389.276 210.773C389.284 210.764 389.289 210.759 389.289 210.759Z" stroke="#E6E6E6" stroke-width="28"/>
</svg>
