<svg width="16" height="16" viewBox="0 0 16 16" fill="none" xmlns="http://www.w3.org/2000/svg">
<path d="M12.0207 11.078L14.876 13.9327L13.9327 14.876L11.078 12.0207C10.0158 12.8722 8.69466 13.3353 7.33333 13.3334C4.02133 13.3334 1.33333 10.6454 1.33333 7.33337C1.33333 4.02137 4.02133 1.33337 7.33333 1.33337C10.6453 1.33337 13.3333 4.02137 13.3333 7.33337C13.3353 8.69471 12.8721 10.0159 12.0207 11.078ZM10.6833 10.5834C11.5294 9.7133 12.0019 8.54699 12 7.33337C12 4.75471 9.91133 2.66671 7.33333 2.66671C4.75466 2.66671 2.66666 4.75471 2.66666 7.33337C2.66666 9.91137 4.75466 12 7.33333 12C8.54695 12.002 9.71325 11.5294 10.5833 10.6834L10.6833 10.5834Z" fill="#7B8698"/>
</svg>
